<svg xmlns="http://www.w3.org/2000/svg" width="420" height="420" viewBox="0 0 420 420" role="img" aria-label="爱心小熊表情">
  <g fill="#ff9fbd">
    <path d="M74 110c-22-24-54 0-42 31 8 21 32 29 42 46 13-19 39-27 45-48 8-31-25-50-45-29z"/>
    <path d="M324 94c-18-22-48-4-40 24 7 19 29 26 39 40 12-16 35-23 42-42 9-27-22-43-41-22z"/>
  </g>
  <path d="M94 255c0-72 51-121 116-121s116 49 116 121c0 51-39 82-116 82S94 306 94 255z" fill="#fffdf9" stroke="#2e2827" stroke-width="10"/>
  <circle cx="163" cy="221" r="39" fill="#f9f5a7" stroke="#2e2827" stroke-width="8"/>
  <circle cx="257" cy="221" r="39" fill="#f9f5a7" stroke="#2e2827" stroke-width="8"/>
  <circle cx="163" cy="221" r="27" fill="#111"/>
  <circle cx="257" cy="221" r="27" fill="#111"/>
  <path d="M202 252c10 13 20 13 30 0" fill="none" stroke="#2e2827" stroke-width="8" stroke-linecap="round"/>
  <path d="M122 302c20 0 36 11 46 28M298 302c-20 0-36 11-46 28" fill="none" stroke="#2e2827" stroke-width="10" stroke-linecap="round"/>
</svg>
