<svg xmlns="http://www.w3.org/2000/svg" width="420" height="420" viewBox="0 0 420 420" role="img" aria-label="线条小狗小花">
  <g fill="none" stroke="#ee9684" stroke-width="10" stroke-linecap="round" stroke-linejoin="round">
    <ellipse cx="210" cy="96" rx="24" ry="24"/>
    <ellipse cx="256" cy="126" rx="24" ry="24"/>
    <ellipse cx="208" cy="154" rx="24" ry="24"/>
    <ellipse cx="162" cy="126" rx="24" ry="24"/>
  </g>
  <circle cx="210" cy="126" r="18" fill="#e2b35e"/>
  <g fill="none" stroke="#372b26" stroke-width="12" stroke-linecap="round" stroke-linejoin="round">
    <ellipse cx="210" cy="199" rx="84" ry="71"/>
    <path d="M132 154c-50-28-54 44-16 56"/>
    <path d="M288 154c50-28 54 44 16 56"/>
    <path d="M210 272v80"/>
    <path d="M210 332c-46-18-64 18-94 18"/>
    <path d="M210 332c46-18 64 18 94 18"/>
    <path d="M194 207c8 12 26 12 34 0"/>
  </g>
  <g fill="#372b26">
    <circle cx="178" cy="192" r="7"/>
    <circle cx="242" cy="192" r="7"/>
  </g>
</svg>
