<svg xmlns="http://www.w3.org/2000/svg" width="420" height="420" viewBox="0 0 420 420" role="img" aria-label="线条小狗挥手">
  <g fill="none" stroke="#372b26" stroke-width="12" stroke-linecap="round" stroke-linejoin="round">
    <ellipse cx="210" cy="193" rx="92" ry="77"/>
    <path d="M126 142c-56-34-64 48-22 60"/>
    <path d="M286 142c62-34 70 48 28 60"/>
    <path d="M162 270c-52 42-20 80 36 56"/>
    <path d="M258 270c56 42 24 80-36 56"/>
    <path d="M302 286c48-36 52-88 28-112"/>
    <path d="M190 207c10 14 30 14 42 0"/>
  </g>
  <g fill="#372b26">
    <circle cx="176" cy="188" r="8"/>
    <circle cx="246" cy="188" r="8"/>
  </g>
  <g fill="none" stroke="#ee9684" stroke-width="10" stroke-linecap="round">
    <path d="M60 88l36 28"/>
    <path d="M360 84l-34 32"/>
  </g>
</svg>
