<svg xmlns="http://www.w3.org/2000/svg" width="420" height="420" viewBox="0 0 420 420" role="img" aria-label="蹦跳小兔表情">
  <path d="M170 130c-20-54 16-82 46-32 21-49 62-32 46 31" fill="#ffc3d5" stroke="#2e2827" stroke-width="9" stroke-linecap="round"/>
  <path d="M110 238c0-68 46-119 101-119s101 51 101 119c0 59-39 93-101 93s-101-34-101-93z" fill="#fffefa" stroke="#2e2827" stroke-width="10"/>
  <circle cx="173" cy="212" r="38" fill="#f8f4a7" stroke="#2e2827" stroke-width="8"/>
  <circle cx="249" cy="212" r="38" fill="#f8f4a7" stroke="#2e2827" stroke-width="8"/>
  <circle cx="174" cy="211" r="25" fill="#111"/>
  <circle cx="248" cy="211" r="25" fill="#111"/>
  <circle cx="162" cy="199" r="10" fill="#fff"/>
  <circle cx="236" cy="199" r="10" fill="#fff"/>
  <path d="M204 252c9 11 18 11 27 0" fill="none" stroke="#2e2827" stroke-width="8" stroke-linecap="round"/>
  <ellipse cx="226" cy="352" rx="44" ry="11" fill="#b9c5c8" opacity=".65"/>
</svg>
