<svg xmlns="http://www.w3.org/2000/svg" width="420" height="420" viewBox="0 0 420 420" role="img" aria-label="软乎小猫表情">
  <path d="M105 208c-2-69 47-112 115-112 76 0 119 43 115 110 38 15 40 84-12 100-35 45-168 45-206 0-53-16-51-81-12-98z" fill="#fffdf8" stroke="#2e2827" stroke-width="9" stroke-linecap="round" stroke-linejoin="round"/>
  <path d="M132 166l-27-50 57 23M302 166l29-50-58 23" fill="#f4b39d" stroke="#2e2827" stroke-width="7" stroke-linejoin="round"/>
  <circle cx="179" cy="226" r="7" fill="#2e2827"/>
  <circle cx="249" cy="226" r="7" fill="#2e2827"/>
  <path d="M209 248c7 8 15 8 22 0" fill="none" stroke="#2e2827" stroke-width="7" stroke-linecap="round"/>
  <circle cx="152" cy="246" r="14" fill="#ffb3a4" opacity=".8"/>
  <circle cx="280" cy="246" r="14" fill="#ffb3a4" opacity=".8"/>
  <path d="M103 290c-16 14-18 34-4 48M320 292c16 12 21 32 8 46" fill="none" stroke="#2e2827" stroke-width="9" stroke-linecap="round"/>
</svg>
